<svg width="115" height="115" viewBox="0 0 115 115" fill="none" xmlns="http://www.w3.org/2000/svg">
<path d="M105.726 33.3871H68.629C67.9947 33.3871 67.3733 33.452 66.7742 33.5744V32.0238C66.7742 28.7834 65.0473 25.7377 62.2706 24.0721L58.3996 21.7498C57.8431 21.416 57.5 20.8076 57.5 20.1602V14.8387H63.0645V0H3.70968V14.8387H9.27419V20.1584C9.27419 20.8057 8.92919 21.416 8.3746 21.748L4.50355 24.0702C1.72685 25.7359 0 28.7834 0 32.0238V90.8871C0 96.0009 4.1604 100.161 9.27419 100.161H59.3548V105.726C59.3548 110.84 63.5152 115 68.629 115H105.726C110.84 115 115 110.84 115 105.726V42.6613C115 37.5475 110.84 33.3871 105.726 33.3871ZM7.41935 11.129V3.70968H59.3548V11.129H7.41935ZM59.3548 87.1774H51.9355V90.8871H59.3548V96.4516H9.27419C6.20629 96.4516 3.70968 93.955 3.70968 90.8871H48.2258V87.1774H3.70968V42.6613H59.3548V87.1774ZM60.1413 38.9516H3.70968V32.0238C3.70968 30.0799 4.74653 28.2529 6.41218 27.2531L10.2832 24.9309C11.3182 24.3077 12.0694 23.3487 12.5202 22.2581H20.4032V18.5484H12.9839V14.8387H53.7903V18.5484H24.1129V22.2581H54.254C54.7048 23.3487 55.4541 24.3077 56.491 24.929L60.362 27.2513C62.0277 28.251 63.0645 30.0799 63.0645 32.0238V35.2419H63.122C61.8348 36.2009 60.7942 37.4659 60.1413 38.9516ZM111.29 105.726C111.29 108.794 108.794 111.29 105.726 111.29H68.629C65.5611 111.29 63.0645 108.794 63.0645 105.726V42.6613C63.0645 39.5934 65.5611 37.0968 68.629 37.0968H105.726C108.794 37.0968 111.29 39.5934 111.29 42.6613V105.726Z" fill="white"/>
<path d="M89.0324 40.8064H85.3228V107.581H89.0324V40.8064Z" fill="white"/>
<path d="M74.1934 48.2258C71.1255 48.2258 68.6289 50.7224 68.6289 53.7904C68.6289 56.8583 71.1255 59.3549 74.1934 59.3549C77.2613 59.3549 79.7579 56.8583 79.7579 53.7904C79.7579 50.7224 77.2613 48.2258 74.1934 48.2258ZM74.1934 55.6452C73.1695 55.6452 72.3386 54.8124 72.3386 53.7904C72.3386 52.7683 73.1695 51.9355 74.1934 51.9355C75.2173 51.9355 76.0482 52.7683 76.0482 53.7904C76.0482 54.8124 75.2173 55.6452 74.1934 55.6452Z" fill="white"/>
<path d="M100.161 48.2258C97.0933 48.2258 94.5967 50.7224 94.5967 53.7904C94.5967 56.8583 97.0933 59.3549 100.161 59.3549C103.229 59.3549 105.726 56.8583 105.726 53.7904C105.726 50.7224 103.229 48.2258 100.161 48.2258ZM100.161 55.6452C99.1373 55.6452 98.3064 54.8124 98.3064 53.7904C98.3064 52.7683 99.1373 51.9355 100.161 51.9355C101.185 51.9355 102.016 52.7683 102.016 53.7904C102.016 54.8124 101.185 55.6452 100.161 55.6452Z" fill="white"/>
<path d="M74.1934 63.0645C71.1255 63.0645 68.6289 65.5611 68.6289 68.629C68.6289 71.6969 71.1255 74.1935 74.1934 74.1935C77.2613 74.1935 79.7579 71.6969 79.7579 68.629C79.7579 65.5611 77.2613 63.0645 74.1934 63.0645ZM74.1934 70.4838C73.1695 70.4838 72.3386 69.6528 72.3386 68.629C72.3386 67.6051 73.1695 66.7741 74.1934 66.7741C75.2173 66.7741 76.0482 67.6051 76.0482 68.629C76.0482 69.6528 75.2173 70.4838 74.1934 70.4838Z" fill="white"/>
<path d="M100.161 63.0645C97.0933 63.0645 94.5967 65.5611 94.5967 68.629C94.5967 71.6969 97.0933 74.1935 100.161 74.1935C103.229 74.1935 105.726 71.6969 105.726 68.629C105.726 65.5611 103.229 63.0645 100.161 63.0645ZM100.161 70.4838C99.1373 70.4838 98.3064 69.6528 98.3064 68.629C98.3064 67.6051 99.1373 66.7741 100.161 66.7741C101.185 66.7741 102.016 67.6051 102.016 68.629C102.016 69.6528 101.185 70.4838 100.161 70.4838Z" fill="white"/>
<path d="M74.1934 77.9031C71.1255 77.9031 68.6289 80.3997 68.6289 83.4676C68.6289 86.5355 71.1255 89.0321 74.1934 89.0321C77.2613 89.0321 79.7579 86.5355 79.7579 83.4676C79.7579 80.3997 77.2613 77.9031 74.1934 77.9031ZM74.1934 85.3224C73.1695 85.3224 72.3386 84.4915 72.3386 83.4676C72.3386 82.4437 73.1695 81.6128 74.1934 81.6128C75.2173 81.6128 76.0482 82.4437 76.0482 83.4676C76.0482 84.4915 75.2173 85.3224 74.1934 85.3224Z" fill="white"/>
<path d="M100.161 77.9031C97.0933 77.9031 94.5967 80.3997 94.5967 83.4676C94.5967 86.5355 97.0933 89.0321 100.161 89.0321C103.229 89.0321 105.726 86.5355 105.726 83.4676C105.726 80.3997 103.229 77.9031 100.161 77.9031ZM100.161 85.3224C99.1373 85.3224 98.3064 84.4915 98.3064 83.4676C98.3064 82.4437 99.1373 81.6128 100.161 81.6128C101.185 81.6128 102.016 82.4437 102.016 83.4676C102.016 84.4915 101.185 85.3224 100.161 85.3224Z" fill="white"/>
<path d="M74.1934 92.7419C71.1255 92.7419 68.6289 95.2385 68.6289 98.3064C68.6289 101.374 71.1255 103.871 74.1934 103.871C77.2613 103.871 79.7579 101.374 79.7579 98.3064C79.7579 95.2385 77.2613 92.7419 74.1934 92.7419ZM74.1934 100.161C73.1695 100.161 72.3386 99.3303 72.3386 98.3064C72.3386 97.2826 73.1695 96.4516 74.1934 96.4516C75.2173 96.4516 76.0482 97.2826 76.0482 98.3064C76.0482 99.3303 75.2173 100.161 74.1934 100.161Z" fill="white"/>
<path d="M100.161 92.7419C97.0933 92.7419 94.5967 95.2385 94.5967 98.3064C94.5967 101.374 97.0933 103.871 100.161 103.871C103.229 103.871 105.726 101.374 105.726 98.3064C105.726 95.2385 103.229 92.7419 100.161 92.7419ZM100.161 100.161C99.1373 100.161 98.3064 99.3303 98.3064 98.3064C98.3064 97.2826 99.1373 96.4516 100.161 96.4516C101.185 96.4516 102.016 97.2826 102.016 98.3064C102.016 99.3303 101.185 100.161 100.161 100.161Z" fill="white"/>
<path d="M40.2034 46.3711H39.7175C37.985 46.3711 36.2563 46.8571 34.574 47.8179C33.6503 48.3446 33.1272 48.3465 32.1998 47.8179C30.5175 46.8571 28.7888 46.3711 27.0563 46.3711H26.5704C21.1246 46.3711 16.6934 50.8023 16.6934 56.25V57.6578C16.6934 61.5307 17.7469 65.335 19.7409 68.657C21.388 71.4021 22.2579 74.5461 22.2579 77.7457V78.6342C22.2579 81.2996 24.4262 83.4679 27.0916 83.4679C29.4825 83.4679 31.5395 81.6835 31.8789 79.3186L33.105 70.7288C33.1439 70.4469 33.6262 70.4469 33.667 70.7288L34.893 79.3186C35.2325 81.6835 37.2895 83.4679 39.6822 83.4679C42.3476 83.4679 44.5159 81.2996 44.5159 78.6342V77.7457C44.5159 74.5442 45.3877 71.4021 47.0329 68.657C49.0269 65.335 50.0804 61.5307 50.0804 57.6559V56.2481C50.0804 50.8023 45.6492 46.3711 40.2034 46.3711ZM46.3708 57.6559C46.3708 60.8574 45.499 63.9995 43.8538 66.7465C41.8598 70.0685 40.8063 73.8728 40.8063 77.7457V78.6342C40.8063 79.2537 40.3017 79.7582 39.6822 79.7582C39.1258 79.7582 38.6454 79.3427 38.5675 78.7918L37.3414 70.2021C37.0613 68.2489 35.3605 66.7743 33.3869 66.7743C31.4134 66.7743 29.7125 68.2489 29.4324 70.2039L28.2063 78.7937C28.1284 79.3427 27.648 79.7582 27.0916 79.7582C26.4721 79.7582 25.9676 79.2537 25.9676 78.6342V77.7457C25.9676 73.8728 24.914 70.0685 22.9201 66.7465C21.2748 64.0013 20.403 60.8592 20.403 57.6559V56.2481C20.403 52.8482 23.1686 50.0808 26.5704 50.0808H27.0563C28.1359 50.0808 29.2469 50.4035 30.3598 51.0379C32.4428 52.2305 34.3329 52.2287 36.4121 51.0379C37.5288 50.4017 38.638 50.0789 39.7175 50.0789H40.2034C43.6052 50.0808 46.3708 52.8482 46.3708 56.25V57.6559Z" fill="white"/>
<path d="M38.2485 54.2632C35.0285 56.0977 31.7473 56.0977 28.5162 54.2595L26.6836 57.4832C28.8649 58.726 31.1185 59.3548 33.387 59.3548C35.6554 59.3548 37.9091 58.726 40.0848 57.4869L38.2485 54.2632Z" fill="white"/>
<path d="M16.6936 72.3389H7.41943V76.0485H16.6936V72.3389Z" fill="white"/>
<path d="M16.6936 79.7581H7.41943V83.4678H16.6936V79.7581Z" fill="white"/>
</svg>
