<svg width="115" height="115" viewBox="0 0 115 115" fill="none" xmlns="http://www.w3.org/2000/svg">
<path d="M108.871 85.2437L93.4376 67.6056V44.9219H95.2345C95.711 44.9219 96.1681 44.7326 96.505 44.3956C96.842 44.0586 97.0313 43.6016 97.0313 43.125C97.0313 42.6484 96.842 42.1914 96.505 41.8544C96.1681 41.5174 95.711 41.3281 95.2345 41.3281H66.4845C66.0079 41.3281 65.5508 41.5174 65.2139 41.8544C64.8769 42.1914 64.6876 42.6484 64.6876 43.125C64.6876 43.6016 64.8769 44.0586 65.2139 44.3956C65.5508 44.7326 66.0079 44.9219 66.4845 44.9219H68.2813V67.6056L52.848 85.2437C50.7294 87.6857 49.3561 90.6844 48.8912 93.8837C48.4262 97.083 48.8892 100.348 50.2252 103.292C51.5611 106.236 53.7139 108.735 56.4278 110.492C59.1417 112.249 62.3028 113.19 65.5357 113.203H96.1832C99.4161 113.19 102.577 112.249 105.291 110.492C108.005 108.735 110.158 106.236 111.494 103.292C112.83 100.348 113.293 97.083 112.828 93.8837C112.363 90.6844 110.99 87.6857 108.871 85.2437ZM56.5909 86.4297L71.4312 69.469C71.7186 69.1402 71.8764 68.7179 71.8751 68.2812V44.9219H89.8438V68.2812C89.8438 68.7161 90.0015 69.1362 90.2877 69.4636C109.462 91.4196 106.143 87.5455 106.752 88.3523C83.2367 79.8657 78.5684 94.1796 56.5909 86.4297Z" fill="#C4A2FC"/>
<path d="M83.6266 30.5469H72.6189L80.9492 22.2166C82.0772 21.1097 82.9747 19.7903 83.5898 18.3346C84.2049 16.8788 84.5254 15.3156 84.5329 13.7353C84.5403 12.155 84.2346 10.5888 83.6332 9.12736C83.0319 7.66588 82.1469 6.33805 81.0295 5.22057C79.912 4.10309 78.5842 3.21813 77.1227 2.6168C75.6612 2.01548 74.0951 1.70971 72.5147 1.71717C70.9344 1.72464 69.3712 2.04517 67.9155 2.66027C66.4597 3.27537 65.1403 4.17283 64.0334 5.30081L38.7873 30.5469H9.81094C7.68652 30.5493 5.64976 31.3941 4.1474 32.8962C2.64504 34.3982 1.79973 36.4347 1.79688 38.5592C1.79688 63.6094 22.2813 84.9221 47.5848 84.4531C59.3301 84.1708 70.5025 79.3205 78.7287 70.9325C86.955 62.5445 91.587 51.2798 91.6406 39.5313V38.5592C91.6378 36.4347 90.7925 34.3982 89.2901 32.8962C87.7877 31.3941 85.751 30.5493 83.6266 30.5469ZM66.5742 7.84159C68.1435 6.27228 70.272 5.39065 72.4913 5.39065C74.7107 5.39065 76.8391 6.27228 78.4084 7.84159C79.9778 9.41091 80.8594 11.5394 80.8594 13.7587C80.8594 15.978 79.9778 18.1065 78.4084 19.6758L67.5373 30.5469H43.8689L66.5742 7.84159ZM88.0469 39.5313C87.9981 50.3396 83.7373 60.703 76.1696 68.42C68.6019 76.137 58.3237 80.5995 47.5184 80.8594C24.283 81.3374 5.39062 61.6131 5.39062 38.5592C5.39253 37.3876 5.8589 36.2645 6.68751 35.4363C7.51612 34.608 8.63935 34.1421 9.81094 34.1407H83.6266C84.7982 34.1421 85.9214 34.608 86.75 35.4363C87.5786 36.2645 88.045 37.3876 88.0469 38.5592V39.5313ZM53.9062 55.7032H48.5156V61.0938C48.5156 61.5703 48.3263 62.0274 47.9893 62.3644C47.6524 62.7013 47.1953 62.8906 46.7188 62.8906C46.2422 62.8906 45.7851 62.7013 45.4482 62.3644C45.1112 62.0274 44.9219 61.5703 44.9219 61.0938V55.7032H39.5312C39.0547 55.7032 38.5976 55.5138 38.2607 55.1769C37.9237 54.8399 37.7344 54.3828 37.7344 53.9063C37.7344 53.4297 37.9237 52.9727 38.2607 52.6357C38.5976 52.2987 39.0547 52.1094 39.5312 52.1094H44.9219V46.7188C44.9219 46.2422 45.1112 45.7852 45.4482 45.4482C45.7851 45.1112 46.2422 44.9219 46.7188 44.9219C47.1953 44.9219 47.6524 45.1112 47.9893 45.4482C48.3263 45.7852 48.5156 46.2422 48.5156 46.7188V52.1094H53.9062C54.3828 52.1094 54.8399 52.2987 55.1768 52.6357C55.5138 52.9727 55.7031 53.4297 55.7031 53.9063C55.7031 54.3828 55.5138 54.8399 55.1768 55.1769C54.8399 55.5138 54.3828 55.7032 53.9062 55.7032Z" fill="white"/>
</svg>
