<svg width="103" height="115" viewBox="0 0 103 115" fill="none" xmlns="http://www.w3.org/2000/svg">
<path d="M101.981 74.6234L81.8927 37.1476C78.9298 31.5404 72.968 28.5836 67.7155 30.117C62.4499 31.6544 59.0143 37.3565 59.5459 43.6671L60.2124 52.4075H55.0893C53.4232 52.4101 51.8567 53.0657 50.6791 54.2534C49.5042 55.4383 48.8585 57.0086 48.8613 58.675C48.867 62.0984 51.6653 64.8834 55.0993 64.8834H61.1524L62.7795 86.0713C62.8027 86.3734 62.961 86.6491 63.2101 86.8213C63.38 86.9389 63.5799 86.9997 63.7822 86.9997C63.8764 86.9997 63.9715 86.9865 64.064 86.9595L65.2697 86.6074V107.891C65.2697 111.811 68.4586 115 72.3783 115C76.2978 115 79.4867 111.811 79.4867 107.891V82.5237C79.4867 82.501 79.4815 82.4799 79.4801 82.4577L101.377 76.0636C101.667 75.9787 101.905 75.7669 102.022 75.4875C102.139 75.2081 102.125 74.8903 101.981 74.6234ZM55.0993 62.8723C52.7723 62.8723 50.8762 60.988 50.8724 58.6717C50.8705 57.5405 51.309 56.4742 52.1072 55.6695C52.9051 54.8648 53.9655 54.4205 55.091 54.4186H64.1958C64.7511 54.4186 65.2014 53.9683 65.2014 53.413V41.5407C65.1995 40.4091 65.6348 39.3463 66.4267 38.5475C67.2184 37.749 68.275 37.3084 69.4093 37.3068C71.7466 37.3068 73.6513 39.1998 73.6553 41.5254V58.6386C73.6588 60.9622 71.7857 62.8571 69.4772 62.8725C69.4466 62.8716 69.4209 62.8718 69.3946 62.8727H55.1064L55.0993 62.8723ZM77.4759 107.891C77.4759 110.702 75.1891 112.989 72.3786 112.989C72.2761 112.989 72.1763 112.979 72.0753 112.973C72.0757 112.96 72.0793 112.947 72.0793 112.933V97.468C72.0793 96.9127 71.629 96.4625 71.0737 96.4625C70.5184 96.4625 70.0682 96.9127 70.0682 97.468V112.429C68.4165 111.585 67.2808 109.87 67.2808 107.891V86.4215C67.2808 86.2871 67.2534 86.1591 67.2053 86.042L77.4759 83.0428V107.891ZM64.6901 84.6817L64.1158 77.2033L84.8554 71.1859C85.3887 71.0312 85.6958 70.4733 85.5411 69.94C85.3866 69.4067 84.828 69.1 84.2951 69.2545L63.9585 75.1551L63.1697 64.8834H69.4367C69.4403 64.8834 69.4436 64.8834 69.4471 64.8834C69.4509 64.8834 69.4547 64.8831 69.4575 64.8834C72.8863 64.8777 75.6716 62.0749 75.6664 58.6369V41.5232C75.6607 38.0892 72.8537 35.2955 69.3986 35.2955C67.7325 35.2981 66.17 35.9501 64.9986 37.1312C63.8298 38.31 63.1874 39.877 63.1903 41.5422V52.4073H62.2294L61.5506 43.5059C61.0985 38.137 63.9282 33.318 68.2793 32.0474C72.6176 30.7807 77.5956 33.3203 80.1175 38.0923L99.623 74.4805L64.6901 84.6817Z" fill="white"/>
<path d="M59.6286 29.6878C59.806 29.6946 59.9835 29.6979 60.1609 29.6979C62.1585 29.6979 64.1436 29.2612 65.9512 28.4317C66.5824 28.5088 67.261 28.5544 68.0037 28.5544C68.0044 28.5544 68.0044 28.5544 68.0046 28.5544C70.6238 28.5544 73.6795 28.0119 77.3453 26.8961C77.7575 26.7707 78.044 26.3964 78.0575 25.9656C78.0828 25.1559 78.5485 6.08155 67.0521 1.25587C65.7674 0.716896 63.7806 0 61.374 0C60.194 0 59.0023 0.1739 57.8273 0.512947C56.725 0.365073 52.6143 -0.0144327 50.6058 2.18381C49.6041 3.28021 49.3166 4.77221 49.7456 6.61839C47.632 9.01277 46.4046 12.0656 46.281 15.2708C46.1384 18.9788 47.4482 22.5207 49.9692 25.2437C52.4901 27.9667 55.9208 29.5449 59.6286 29.6878ZM61.374 2.01109C63.395 2.01109 65.0542 2.59857 66.2737 3.11033C75.3321 6.91272 76.0154 21.7319 76.0497 25.1829C72.893 26.0978 70.2559 26.5431 68.0046 26.5431C68.0046 26.5431 68.0039 26.5431 68.0037 26.5431C65.0218 26.5429 63.188 25.7505 61.4454 24.9591C64.5564 21.1664 65.1472 15.9726 63.1421 9.83567C62.0537 6.50506 60.4725 3.70041 59.5223 2.17719C60.1406 2.06669 60.76 2.01109 61.374 2.01109ZM52.0891 3.54189C53.2087 2.31323 55.9416 2.32979 57.3201 2.47814C58.3064 3.96351 62.014 9.92699 62.2671 15.9177C61.0456 14.6204 59.4355 13.6177 57.8567 12.637C55.1055 10.9283 52.5069 9.3142 51.7384 6.31105C51.4181 5.05802 51.5326 4.15232 52.0891 3.54189ZM48.2907 15.348C48.382 12.9708 49.1839 10.6922 50.5734 8.79321C51.9717 11.3475 54.5067 12.9235 56.7955 14.3452C59.0891 15.7698 61.2552 17.1201 62.0168 19.197C61.6098 21.1359 60.6996 22.9877 59.0579 24.5895C58.817 24.8247 58.7096 25.1652 58.7721 25.4962C58.8348 25.8272 59.0588 26.1047 59.369 26.2358C59.7244 26.3858 60.0755 26.5455 60.4472 26.7144C61.0179 26.974 61.6124 27.2437 62.2593 27.4942C61.4189 27.6445 60.5622 27.7103 59.7057 27.6776C56.5346 27.5555 53.6007 26.206 51.4446 23.8771C49.2889 21.5485 48.1686 18.5193 48.2907 15.348Z" fill="white"/>
<path d="M51.3277 69.3013H46.9632C47.2542 68.8025 47.4236 68.2245 47.4236 67.6065C47.4236 65.7516 45.9207 64.2421 44.0688 64.2293V59.9797C47.8918 57.1065 50.3692 52.5352 50.3692 47.3955C50.3692 41.3814 46.8919 35.854 41.4899 33.2341L46.4852 28.2388C47.9384 26.7856 47.9384 24.421 46.485 22.9678L45.5869 22.0699C44.883 21.3658 43.947 20.978 42.9514 20.978C41.9558 20.978 41.0198 21.3658 40.3159 22.0697L27.1014 35.2842C26.3975 35.9884 26.0097 36.9243 26.0097 37.9197C26.0097 38.9153 26.3975 39.8511 27.1014 40.5552L27.9997 41.4533C28.7263 42.1797 29.6808 42.5431 30.635 42.5431C31.3661 42.5431 32.0962 42.328 32.7249 41.9019C33.8544 43.1767 35.5021 43.9826 37.3352 43.9826C38.7806 43.9826 40.1103 43.481 41.1622 42.6444C42.1663 44.019 42.7122 45.6724 42.7122 47.3957C42.7122 51.8495 39.0889 55.4728 34.6349 55.4728C31.5549 55.4728 28.8207 53.7622 27.456 51.1016H27.6798C29.3171 51.1016 30.6492 49.7695 30.6492 48.1323C30.6492 46.495 29.3171 45.163 27.6798 45.163H17.2063C15.569 45.163 14.237 46.495 14.237 48.1323C14.237 49.7695 15.569 51.1016 17.2063 51.1016H19.3468C20.77 57.0078 25.4565 61.4911 31.2568 62.7633V64.2284H24.7342C22.8714 64.2284 21.3558 65.744 21.3558 67.6068C21.3558 68.2248 21.5254 68.8025 21.8162 69.3015H1.90472C1.34942 69.3015 0.89917 69.7518 0.89917 70.3071V113.184C0.89917 113.739 1.34942 114.19 1.90472 114.19H51.3277C51.883 114.19 52.3333 113.739 52.3333 113.184V70.3068C52.3333 69.7515 51.883 69.3013 51.3277 69.3013ZM29.4219 40.0311L28.5236 39.133C28.1994 38.8088 28.021 38.378 28.021 37.9197C28.021 37.4612 28.1994 37.0303 28.5238 36.7064L41.7383 23.4919C42.0625 23.1678 42.4933 22.9894 42.9516 22.9894C43.4099 22.9894 43.8408 23.1678 44.1649 23.4921L45.063 24.39C45.7321 25.0591 45.7321 26.1477 45.063 26.8168L39.7327 32.1472C38.9954 31.8346 38.1851 31.6614 37.3352 31.6614C33.9384 31.6614 31.1747 34.4251 31.1747 37.822C31.1747 38.6638 31.3448 39.4664 31.6519 40.1979C30.9809 40.6927 30.0293 40.6385 29.4219 40.0311ZM33.186 37.822C33.186 35.5341 35.0476 33.6725 37.3355 33.6725C39.6234 33.6725 41.4849 35.5341 41.4849 37.822C41.4849 40.1099 39.6234 41.9715 37.3355 41.9715C35.0476 41.9715 33.186 40.1099 33.186 37.822ZM16.2478 48.132C16.2478 47.6037 16.6777 47.1738 17.2061 47.1738H27.6798C28.2082 47.1738 28.6381 47.6037 28.6381 48.132C28.6381 48.6604 28.2082 49.0903 27.6798 49.0903H20.1796C20.178 49.0903 20.1763 49.0903 20.1747 49.0903H17.2063C16.6777 49.0903 16.2478 48.6604 16.2478 48.132ZM21.4218 51.1014H25.25C26.7609 54.948 30.4426 57.4836 34.6352 57.4836C40.1978 57.4836 44.7235 52.9582 44.7235 47.3955C44.7235 45.1003 43.9496 42.9044 42.5321 41.1242C43.1414 40.1688 43.496 39.0362 43.496 37.8218C43.496 37.4945 43.4698 37.1735 43.4206 36.86C46.4947 39.4337 48.3584 43.2844 48.3584 47.3955C48.3584 54.9624 42.2021 61.1185 34.6354 61.1185C28.4339 61.1187 23.0588 56.973 21.4218 51.1014ZM33.2678 63.07C33.719 63.109 34.1752 63.1298 34.6352 63.1298C37.318 63.1298 39.8451 62.4534 42.0578 61.2645V64.2284H33.2678V63.07ZM24.7342 66.2392H44.0452C44.799 66.2392 45.4125 66.8527 45.4125 67.6065C45.4125 68.3603 44.799 68.9738 44.0452 68.9738H24.7342C23.9801 68.9738 23.3669 68.3603 23.3669 67.6065C23.3669 66.8527 23.9801 66.2392 24.7342 66.2392ZM2.91026 112.178V107.914C3.09363 108.109 3.35152 108.231 3.6397 108.231H24.9336C25.4889 108.231 25.9392 107.781 25.9392 107.226C25.9392 106.67 25.4889 106.22 24.9336 106.22H3.6397C3.35152 106.22 3.09363 106.343 2.91026 106.537V71.3124H50.3222V75.4623H6.1635C5.60821 75.4623 5.15796 75.9126 5.15796 76.4679C5.15796 77.0232 5.60821 77.4734 6.1635 77.4734H50.3222V112.178H2.91026V112.178Z" fill="white"/>
<path d="M5.5683 68.9693H14.1881C15.1835 68.9693 15.9796 68.5657 16.3721 67.8623C16.7646 67.1589 16.6896 66.2695 16.1665 65.4225L14.5293 62.7712C13.947 61.8281 13.4362 60.0287 13.4362 58.9205V54.5976C13.4362 54.0423 12.9859 53.592 12.4306 53.592H7.32552C6.77022 53.592 6.31997 54.0423 6.31997 54.5976V58.9207C6.31997 60.0292 5.80916 61.8285 5.22665 62.7714L3.58962 65.4225C3.0665 66.2695 2.99173 67.1589 3.38401 67.8625C3.77653 68.5657 4.57269 68.9693 5.5683 68.9693ZM5.30094 66.4789L6.93797 63.8278C7.71922 62.5627 8.33107 60.4073 8.33107 58.9203V55.6027H11.4251V58.92C11.4251 60.4068 12.0369 62.5625 12.8182 63.8273L14.4554 66.4787C14.5839 66.6869 14.6107 66.8255 14.6107 66.8795C14.5647 66.9079 14.4327 66.958 14.1881 66.958H5.5683C5.32366 66.958 5.19163 66.9079 5.14573 66.8795C5.14573 66.8258 5.17247 66.6871 5.30094 66.4789Z" fill="white"/>
</svg>
